{"title":"Solitary-S04E006-The.Head.Of.Nails.avi","uid":5419280,"size":372850438,"categoryP":"video","categoryS":"tv_shows","magnet":"?xt=urn:btih:658d9642f2966e29333cc434d8d1f6be7b42dd5a&amp;dn=Solitary-S04E006-The.Head.Of.Nails.avi&amp;tr=udp%3A%2F%2Ftracker.openbittorrent.com%3A80&amp;tr=udp%3A%2F%2Fopen.demonii.com%3A1337&amp;tr=udp%3A%2F%2Ftracker.coppersurfer.tk%3A6969&amp;tr=udp%3A%2F%2Fexodus.desync.com%3A6969","seeders":1,"leechers":0,"uploader":"pixiesmiles","files":-1,"time":1268041628,"description":"Hello my fellow Solitarians!  Val is back!  I would love to give you a little teaser regarding this week's episode, however I have not yet watched it myself. I'm as much in the dark as you all are! :o)\n\nSo, who wants to join me for a night long Solitary marathon? I'll bring the Whips, Paddles and Bananas.. You all bring whatever STRIKES your fancy.  I have a hunch it's going to be an interesting evening.. *twinkling smiles* \n\nEnjoy the episode!\n\n-a little reminder note to those who need it- My upload speed is slightly slower than snail paced. If you can't handle that, I both welcome AND highly encourage you supply these files to others yourself. Or... simply wait until there is a decent number of seeds available to better cater to your needs. ;o)\n\n\n\nFormat                           : AVI\nFormat/Info                      : Audio Video Interleave\nFile size                        : 356 MiB\nDuration                         : 42mn 38s\nOverall bit rate                 : 1 166 Kbps\n\nVideo\nFormat                           : xvid\nCodec ID                         : xvid\nDuration                         : 42mn 36s\nBit rate                         : 1 025 Kbps\nWidth                            : 640 pixels\nHeight                           : 360 pixels\nDisplay aspect ratio             : 16:9\nFrame rate                       : 30.000 fps\nBits/(Pixel*Frame)               : 0.148\nStream size                      : 312 MiB (88%)\n\nAudio\nID                               : 1\nFormat                           : MPEG Audio\nFormat version                   : Version 1\nFormat profile                   : Layer 3\nMode                             : Joint stereo\nFormat_Settings_ModeExtension    : MS Stereo\nCodec ID                         : 55\nCodec ID/Hint                    : MP3\nDuration                         : 42mn 38s\nBit rate mode                    : Constant\nBit rate                         : 128 Kbps\nChannel(s)                       : 2 channels\nSampling rate                    : 48.0 KHz\nStream size                      : 39.0 MiB (11%)\nAlignment                        : Aligned on interleaves\nInterleave, duration             : 24 ms (0.72 video frame)","torrent":{"xt":"urn:btih:658d9642f2966e29333cc434d8d1f6be7b42dd5a","amp;dn":"Solitary-S04E006-The.Head.Of.Nails.avi","amp;tr":["udp%3A%2F%2Ftracker.openbittorrent.com%3A80","udp%3A%2F%2Fopen.demonii.com%3A1337","udp%3A%2F%2Ftracker.coppersurfer.tk%3A6969","udp%3A%2F%2Fexodus.desync.com%3A6969"],"infoHash":"658d9642f2966e29333cc434d8d1f6be7b42dd5a","infoHashBuffer":{"type":"Buffer","data":[101,141,150,66,242,150,110,41,51,60,196,52,216,209,246,190,123,66,221,90]},"announce":[],"urlList":[]}}